ply
format ascii 1.0
comment VCGLIB generated
element vertex 222
property float x
property float y
property float z
property float nx
property float ny
property float nz
property float s
property float t
element face 78
property list uchar int vertex_indices
end_header
-16.3559 115.485 14.8842 0 1.48905 0 -16.3559 -14.8842
-24.2309 115.485 -81.2408 0 0.0817417 0 -24.2309 81.2408
-24.2309 115.485 14.8842 3.09187 1.5708 -0.198596 -24.2309 -14.8842
-33.7934 105.923 -81.2408 0.0817439 0 0 81.2408 105.923
-33.7934 105.923 14.8842 1.57079 -3.09183 -0.198583 -14.8842 105.923
-33.7934 98.0479 14.8842 1.48905 0 0 -14.8842 98.0479
-33.7934 125.048 -81.2408 -0.0817417 0 0 -81.2408 125.048
-33.7934 125.048 14.8842 -1.5709 3.09181 -0.198602 14.8842 125.048
-33.7934 132.923 14.8842 -1.48905 0 0 14.8842 132.923
-43.3559 115.485 14.8842 -3.09187 -1.5708 -0.198596 43.3559 -14.8842
-51.2309 115.485 14.8842 0 -1.48905 0 51.2309 -14.8842
-43.3559 115.485 -81.2408 0 -0.0817417 0 43.3559 81.2408
-31.3184 106.249 -81.2408 0.0789594 0.0211565 0 81.2408 110.734
-31.3184 106.249 14.8842 2.31745 -2.58003 -0.198585 -14.8842 110.734
-29.2802 98.6421 14.8842 1.43832 0.385384 0 -14.8842 102.859
-43.0301 113.01 -81.2408 0.0211544 -0.0789562 0 81.2408 -12.3146
-43.0301 113.01 14.8842 -2.57996 -2.31756 -0.198595 -14.8842 -12.3146
-50.6367 110.972 14.8842 0.385364 -1.43833 0 -14.8842 -20.1896
-36.2683 124.722 -81.2408 -0.0789602 -0.0211564 0 -81.2408 129.859
-36.2683 124.722 14.8842 -2.31749 2.57998 -0.198602 14.8842 129.859
-38.3065 132.329 14.8842 -1.43832 -0.385379 0 14.8842 137.734
-16.9501 119.999 14.8842 -0.38554 1.43828 0 14.8842 14.6854
-24.5567 117.96 -81.2408 -0.0211648 0.0789564 0 -81.2408 6.81041
-24.5567 117.96 14.8842 2.57988 2.31729 -0.198598 14.8842 6.81041
-38.5746 123.767 -81.2408 -0.0707912 -0.040871 0 -81.2408 126.472
-38.5746 123.767 14.8842 -2.90585 1.89245 -0.198604 14.8842 126.472
-42.5121 130.587 14.8842 -1.28956 -0.744522 0 14.8842 134.347
-18.6921 124.204 14.8842 -0.744463 1.2896 0 14.8842 45.9143
-25.512 120.267 -81.2408 -0.0408658 0.07079 0 -81.2408 38.0393
-25.512 120.267 14.8842 1.89224 2.90631 -0.1986 14.8842 38.0393
-42.0748 110.704 -81.2408 0.0408658 -0.07079 0 81.2408 18.9143
-42.0748 110.704 14.8842 -1.89215 -2.90654 -0.198592 -14.8842 18.9143
-48.8947 106.767 14.8842 0.744462 -1.2896 0 -14.8842 11.0393
-29.0121 107.204 -81.2408 0.0707911 0.040871 0 81.2408 107.347
-29.0121 107.204 14.8842 2.90627 -1.89218 -0.198585 -14.8842 107.347
-25.0746 100.384 14.8842 1.28956 0.744523 0 -14.8842 99.4725
-27.0317 108.724 -81.2408 0.0578053 0.0578001 0 81.2408 95.9935
-27.0317 108.724 14.8842 3.29709 -1.07566 -0.198589 -14.8842 95.9935
-21.4632 103.155 14.8842 1.05296 1.05287 0 -14.8842 88.1185
-40.5551 108.724 -81.2408 0.0578053 -0.0578001 0 81.2408 48.2025
-40.5551 108.724 14.8842 -1.07552 -3.29702 -0.198589 -14.8842 48.2025
-46.1236 103.155 14.8842 1.05296 -1.05287 0 -14.8842 40.3275
-21.4632 127.816 14.8842 -1.05296 1.05287 0 14.8842 75.2025
-27.0317 122.247 -81.2408 -0.0578053 0.0578001 0 -81.2408 67.3275
-27.0317 122.247 14.8842 1.07555 3.297 -0.198604 14.8842 67.3275
-40.5551 122.247 -81.2408 -0.0578053 -0.0578001 0 -81.2408 115.119
-40.5551 122.247 14.8842 -3.29734 1.07548 -0.198607 14.8842 115.119
-46.1236 127.816 14.8842 -1.05296 -1.05287 0 14.8842 122.994
-42.0748 120.267 -81.2408 -0.0408658 -0.07079 0 -81.2408 96.5711
-42.0748 120.267 14.8842 -3.46289 0.185534 -0.1986 14.8842 96.5711
-48.8947 124.204 14.8842 -0.744462 -1.2896 0 14.8842 104.446
-18.6921 106.767 14.8842 0.744463 1.2896 0 -14.8842 69.5711
-25.512 110.704 -81.2408 0.0408658 0.07079 0 81.2408 77.4461
-25.512 110.704 14.8842 3.46281 -0.185757 -0.198592 -14.8842 77.4461
-38.5746 107.204 -81.2408 0.0707911 -0.040871 0 81.2408 73.5541
-38.5746 107.204 14.8842 -0.185535 -3.46299 -0.198585 -14.8842 73.5541
-42.5121 100.384 14.8842 1.28956 -0.744523 0 -14.8842 65.6791
-29.0121 123.767 -81.2408 -0.0707912 0.040871 0 -81.2408 92.6791
-29.0121 123.767 14.8842 0.185561 3.46296 -0.198603 14.8842 92.6791
-25.0746 130.587 14.8842 -1.28956 0.744522 0 14.8842 100.554
-36.2683 106.249 -81.2408 0.0789594 -0.0211565 0 81.2408 93.2414
-36.2683 106.249 14.8842 0.71709 -3.39311 -0.198585 -14.8842 93.2414
-38.3065 98.6421 14.8842 1.43832 -0.385384 0 -14.8842 85.3664
-43.0301 117.96 -81.2408 -0.0211648 -0.0789564 0 -81.2408 72.0942
-43.0301 117.96 14.8842 -3.39329 -0.717175 -0.198598 14.8842 72.0942
-50.6367 119.999 14.8842 -0.38554 -1.43828 0 14.8842 79.9692
-16.9501 110.972 14.8842 0.385364 1.43833 0 -14.8842 45.0942
-24.5567 113.01 -81.2408 0.0211544 0.0789562 0 81.2408 52.9692
-24.5567 113.01 14.8842 3.393 0.717009 -0.198595 -14.8842 52.9692
-31.3184 124.722 -81.2408 -0.0789602 0.0211564 0 -81.2408 112.366
-31.3184 124.722 14.8842 -0.7171 3.39311 -0.198605 14.8842 112.366
-29.2802 132.329 14.8842 -1.43832 0.385379 0 14.8842 120.241
-33.7934 115.485 -133.991 7.94139e-006 -5.75474e-005 -0.0255149 136.78 54.9706
-39.6187 122.966 14.8842 -3.15173 1.52655 -0.19967 18.9255 45.141
-37.4634 124.227 14.8842 -4.08614 1.6574 -0.199668 20.832 16.2755
-35.053 124.882 14.8842 -0.409438 3.1084 2.94017 28.7472 -6.61297
-32.5559 124.885 14.8842 -1.14864 3.30798 -0.199668 0.898245 53.5086
-27.9762 123.007 -81.2408 -0.06502 0.0495353 0 -81.2408 80.8953
-27.9762 123.007 14.8842 -1.2495 0.951924 0 14.8842 80.8953
-23.204 129.271 14.8842 -1.18448 0.902389 0 14.8842 88.7703
-17.6376 108.783 14.8842 0.564992 1.3777 0 -14.8842 57.597
-24.9237 111.771 -81.2408 0.0310153 0.0756291 0 81.2408 65.472
-24.9237 111.771 14.8842 0.596007 1.45333 0 -14.8842 65.472
-36.1074 132.68 14.8842 -1.47563 -0.199523 0 14.8842 136.322
-35.0522 124.876 14.8842 -1.55663 -0.210476 0.00176052 14.8842 128.447
-35.0522 124.876 -81.2408 -0.0810046 -0.0109528 0 -81.2408 128.447
-32.5559 124.885 -81.2408 -0.081077 0.0103861 0 -81.2408 119.736
-31.5553 132.696 14.8842 -1.47699 0.189204 0 14.8842 127.611
-16.4748 113.184 14.8842 0.189273 1.47698 0 -14.8842 30.723
-24.286 114.185 -81.2408 0.0103903 0.0810794 0 81.2408 38.598
-24.286 114.185 14.8842 0.199664 1.55806 0 -14.8842 38.598
-19.974 126.063 14.8842 -0.910507 1.17825 0 14.8842 61.2873
-26.2049 121.248 -81.2408 -0.0499799 0.064677 0 -81.2408 53.4123
-26.2049 121.248 14.8842 -0.960486 1.24293 0 14.8842 53.4123
-17.6842 122.129 14.8842 -0.574633 1.37371 0 14.8842 30.816
-24.9492 119.09 -81.2408 -0.0315445 0.0754099 0 -81.2408 22.941
-24.9492 119.09 14.8842 -0.606177 1.44912 0 14.8842 22.941
-19.8999 104.833 14.8842 0.902327 1.18452 0 -14.8842 79.3575
-26.1643 109.605 -81.2408 0.0495333 0.0650243 0 81.2408 87.2325
-26.1643 109.605 14.8842 0.95186 1.24955 0 -14.8842 87.2325
-27.9232 107.834 -81.2408 0.0646774 0.0499866 0 81.2408 102.397
-27.9232 107.834 14.8842 1.24287 0.960564 0 -14.8842 102.397
-23.1075 101.603 14.8842 1.17819 0.910577 0 -14.8842 94.5215
-41.3777 121.195 -81.2408 -0.0495333 -0.0650233 0 -81.2408 106.357
-41.3777 121.195 14.8842 -0.95187 -1.24954 0 14.8842 106.357
-47.642 125.967 14.8842 -0.902337 -1.18451 0 14.8842 114.232
-30.1424 124.247 -81.2408 -0.0756282 0.0310173 0 -81.2408 103.517
-30.1424 124.247 14.8842 -1.45332 0.596047 0 14.8842 103.517
-27.1542 131.533 14.8842 -1.37769 0.56503 0 14.8842 111.392
-32.4897 105.924 -81.2408 0.0810084 0.0109519 0 81.2408 109.322
-32.4897 105.924 14.8842 1.55664 0.210449 0 -14.8842 109.322
-31.4346 98.1197 14.8842 1.47563 0.199497 0 -14.8842 101.447
-43.256 116.615 -81.2408 -0.0103903 -0.0810786 0 -81.2408 57.723
-43.256 116.615 14.8842 -0.199666 -1.55805 0 14.8842 57.723
-51.0671 117.616 14.8842 -0.189276 -1.47698 0 14.8842 65.598
-34.986 105.915 -81.2408 0.0810798 -0.0103872 0 81.2408 100.611
-34.986 105.915 14.8842 1.55806 -0.199604 0 -14.8842 100.611
-35.9867 98.1038 14.8842 1.47698 -0.189217 0 -14.8842 92.736
-43.2472 114.119 14.8842 0.210437 -1.55664 0 -14.8842 -27.567
-51.0512 113.064 14.8842 0.199486 -1.47563 0 -14.8842 -35.442
-43.2472 114.119 -81.2408 0.0109508 -0.0810049 0 81.2408 -27.567
-41.337 109.552 -81.2408 0.04999 -0.0646766 0 81.2408 34.2873
-41.337 109.552 14.8842 0.960611 -1.24283 0 -14.8842 34.2873
-47.5679 104.736 14.8842 0.910621 -1.17815 0 -14.8842 26.4123
-39.6187 122.966 -81.2408 -0.064678 -0.0499882 0 -81.2408 121.522
-44.4345 129.197 14.8842 -1.17818 -0.910589 0 14.8842 129.397
-42.6183 119.029 -81.2408 -0.0310153 -0.0756283 0 -81.2408 84.597
-42.6183 119.029 14.8842 -0.596013 -1.45333 0 14.8842 84.597
-49.9043 122.017 14.8842 -0.564998 -1.3777 0 14.8842 92.472
-16.4907 117.736 14.8842 -0.199486 1.47563 0 14.8842 -0.56696
-24.2947 116.681 -81.2408 -0.0109508 0.0810049 0 -81.2408 -8.44196
-24.2947 116.681 14.8842 -0.210437 1.55664 0 14.8842 -8.44196
-42.5927 111.71 14.8842 0.606177 -1.44912 0 -14.8842 3.81605
-49.8577 108.671 14.8842 0.574633 -1.37371 0 -14.8842 -4.05895
-42.5927 111.71 -81.2408 0.0315445 -0.0754099 0 81.2408 3.81605
-37.3995 106.553 -81.2408 0.0756322 -0.0310172 0 81.2408 84.3921
-37.3995 106.553 14.8842 1.45333 -0.596019 0 -14.8842 84.3921
-40.3877 99.2666 14.8842 1.3777 -0.565001 0 -14.8842 76.5171
-30.0807 106.578 -81.2408 0.0754076 0.0315444 0 81.2408 109.931
-30.0807 106.578 14.8842 1.44911 0.606191 0 -14.8842 109.931
-27.0417 99.3132 14.8842 1.37371 0.574647 0 -14.8842 102.056
-37.4612 124.222 -81.2408 -0.0753578 -0.0315215 -8.68405e-008 -81.2408 129.056
-37.4612 124.222 14.8842 -1.43753 -0.633172 0 14.8842 129.056
-40.5002 131.487 14.8842 -1.37372 -0.574614 -1.58304e-006 14.8842 136.931
-39.5657 107.793 -81.2408 0.0650201 -0.0495352 0 81.2408 61.7703
-39.5657 107.793 14.8842 1.2495 -0.951923 0 -14.8842 61.7703
-44.3379 101.529 14.8842 1.18448 -0.902388 0 -14.8842 53.8953
-27.0317 108.724 14.8842 3.29709 -1.07566 -0.198589 -11.991 43.9012
-29.0121 107.204 14.8842 2.90627 -1.89218 -0.198585 -11.785 41.4134
-29.0121 107.204 14.8842 2.90627 -1.89218 -0.198585 -9.91989 12.8659
-31.3184 106.249 14.8842 2.31745 -2.58003 -0.198585 -9.54131 10.3984
-33.7934 115.485 -133.991 7.94139e-006 -5.75474e-005 -0.0255149 137.72 34.2558
-31.3184 106.249 14.8842 2.31745 -2.58003 -0.198585 0.35563 -18.9079
-33.7934 105.923 14.8842 1.57079 -3.09183 -0.198583 1.44086 -21.1559
-33.7934 115.485 -133.991 7.94139e-006 -5.75474e-005 -0.0255149 135.241 44.8201
-33.7934 105.923 14.8842 1.57079 -3.09183 -0.198583 28.1949 38.9455
-36.2683 106.249 14.8842 0.71709 -3.39311 -0.198585 29.2801 41.1936
-33.7934 115.485 -133.991 7.94139e-006 -5.75474e-005 -0.0255149 -105.605 104.922
-33.7934 115.485 -133.991 7.94139e-006 -5.75474e-005 -0.0255149 -126.626 95.7263
-36.2683 106.249 14.8842 0.71709 -3.39311 -0.198585 20.6358 71.8689
-38.5746 107.204 14.8842 -0.185535 -3.46299 -0.198585 21.0144 74.3364
-33.7934 115.485 -133.991 7.94139e-006 -5.75474e-005 -0.0255149 -129.748 108.192
-38.5746 107.204 14.8842 -0.185535 -3.46299 -0.198585 18.8168 94.6348
-40.5551 108.724 14.8842 -1.07552 -3.29702 -0.198589 19.0229 97.1225
-33.7934 115.485 -133.991 7.94139e-006 -5.75474e-005 -0.0255149 -130.857 118.708
-40.5551 108.724 14.8842 -1.07552 -3.29702 -0.198589 18.0814 110.195
-42.0748 110.704 14.8842 -1.89215 -2.90654 -0.198592 18.203 112.688
-33.7934 115.485 -133.991 7.94139e-006 -5.75474e-005 -0.0255149 -131.35 123.126
-42.0748 110.704 14.8842 -1.89215 -2.90654 -0.198592 17.7423 117.953
-43.0301 113.01 14.8842 -2.57996 -2.31756 -0.198595 17.808 120.448
-33.7934 115.485 -133.991 7.94139e-006 -5.75474e-005 -0.0255149 -131.549 120.013
-43.0301 113.01 14.8842 -2.57996 -2.31756 -0.198595 17.6118 117.517
-43.3559 115.485 14.8842 -3.09187 -1.5708 -0.198596 17.6327 120.013
-33.7934 115.485 -133.991 7.94139e-006 -5.75474e-005 -0.0255149 -131.549 108.99
-43.3559 115.485 14.8842 -3.09187 -1.5708 -0.198596 17.6327 108.99
-43.0301 117.96 14.8842 -3.39329 -0.717175 -0.198598 17.6118 111.486
-33.7934 115.485 -133.991 7.94139e-006 -5.75474e-005 -0.0255149 -131.35 90.3372
-43.0301 117.96 14.8842 -3.39329 -0.717175 -0.198598 17.808 93.0151
-42.0748 120.267 14.8842 -3.46289 0.185534 -0.1986 17.7423 95.5106
-33.7934 115.485 -133.991 7.94139e-006 -5.75474e-005 -0.0255149 -130.857 64.7516
-42.0748 120.267 14.8842 -3.46289 0.185534 -0.1986 18.203 70.7711
-40.5551 122.247 14.8842 -3.29734 1.07548 -0.198607 18.0814 73.2644
-33.7934 115.485 -133.991 7.94139e-006 -5.75474e-005 -0.0255149 -129.748 32.8948
-40.5551 122.247 14.8842 -3.29734 1.07548 -0.198607 19.0229 43.9644
-38.5746 123.767 14.8842 -2.90585 1.89245 -0.198604 18.8169 46.4522
-33.7934 115.485 -133.991 7.94139e-006 -5.75474e-005 -0.0255149 -126.626 -6.3033
-38.5746 123.767 14.8842 -2.90585 1.89245 -0.198604 21.0144 15.0867
-36.2683 124.722 14.8842 -2.31749 2.57998 -0.198602 20.6358 17.5541
-33.7934 115.485 -133.991 7.94139e-006 -5.75474e-005 -0.0255149 -105.605 -71.4449
-36.2683 124.722 14.8842 -2.31749 2.57998 -0.198602 29.2801 -7.71691
-33.7934 125.048 14.8842 -1.5709 3.09181 -0.198602 28.1949 -5.46884
-33.7934 115.485 -133.991 7.94139e-006 -5.75474e-005 -0.0255149 135.241 -11.3434
-33.7934 125.048 14.8842 -1.5709 3.09181 -0.198602 1.44086 54.6326
-31.3184 124.722 14.8842 -0.7171 3.39311 -0.198605 0.35563 52.3845
-29.0121 123.767 14.8842 0.185561 3.46296 -0.198603 -9.91989 76.5572
-33.7934 115.485 -133.991 7.94139e-006 -5.75474e-005 -0.0255149 137.72 55.1672
-31.3184 124.722 14.8842 -0.7171 3.39311 -0.198605 -9.54131 79.0246
-27.0317 122.247 14.8842 1.07555 3.297 -0.198604 -11.991 97.1864
-33.7934 115.485 -133.991 7.94139e-006 -5.75474e-005 -0.0255149 136.78 86.117
-29.0121 123.767 14.8842 0.185561 3.46296 -0.198603 -11.785 99.6742
-33.7934 115.485 -133.991 7.94139e-006 -5.75474e-005 -0.0255149 136.265 105.681
-27.0317 122.247 14.8842 1.07555 3.297 -0.198604 -12.6736 114.194
-25.512 120.267 14.8842 1.89224 2.90631 -0.1986 -12.7952 111.7
-33.7934 115.485 -133.991 7.94139e-006 -5.75474e-005 -0.0255149 135.997 116.088
-25.512 120.267 14.8842 1.89224 2.90631 -0.1986 -13.0946 121.262
-24.5567 117.96 14.8842 2.57988 2.31729 -0.198598 -13.1603 118.766
-33.7934 115.485 -133.991 7.94139e-006 -5.75474e-005 -0.0255149 135.881 117.776
-24.5567 117.96 14.8842 2.57988 2.31729 -0.198598 -13.2795 120.272
-24.2309 115.485 14.8842 3.09187 1.5708 -0.198596 -13.3004 117.776
-33.7934 115.485 -133.991 7.94139e-006 -5.75474e-005 -0.0255149 135.881 111.227
-24.2309 115.485 14.8842 3.09187 1.5708 -0.198596 -13.3004 111.227
-24.5567 113.01 14.8842 3.393 0.717009 -0.198595 -13.2795 108.731
-33.7934 115.485 -133.991 7.94139e-006 -5.75474e-005 -0.0255149 135.997 97.375
-24.5567 113.01 14.8842 3.393 0.717009 -0.198595 -13.1603 94.697
-25.512 110.704 14.8842 3.46281 -0.185757 -0.198592 -13.0946 92.2016
-33.7934 115.485 -133.991 7.94139e-006 -5.75474e-005 -0.0255149 136.265 77.7782
-25.512 110.704 14.8842 3.46281 -0.185757 -0.198592 -12.7952 71.7587
-27.0317 108.724 14.8842 3.29709 -1.07566 -0.198589 -12.6736 69.2654
-35.053 124.882 14.8842 -0.409438 3.1084 2.94017 14.8842 128.453
-32.5559 124.885 14.8842 -1.14864 3.30798 -0.199668 14.8842 119.736
-39.6187 122.966 14.8842 -3.15173 1.52655 -0.19967 14.8842 121.522
-37.4634 124.227 14.8842 -4.08614 1.6574 -0.199668 14.8842 129.062
3 0 1 2 
3 3 4 5 
3 6 7 8 
3 9 10 11 
3 12 13 14 
3 15 16 17 
3 18 19 20 
3 21 22 23 
3 24 25 26 
3 27 28 29 
3 30 31 32 
3 33 34 35 
3 36 37 38 
3 39 40 41 
3 42 43 44 
3 45 46 47 
3 48 49 50 
3 51 52 53 
3 54 55 56 
3 57 58 59 
3 60 61 62 
3 63 64 65 
3 66 67 68 
3 69 70 71 
3 147 148 72 
3 149 150 151 
3 152 153 154 
3 155 156 157 
3 158 159 160 
3 161 162 163 
3 164 165 166 
3 167 168 169 
3 170 171 172 
3 173 174 175 
3 176 177 178 
3 179 180 181 
3 73 182 183 
3 182 73 184 
3 74 185 186 
3 185 74 187 
3 75 188 189 
3 188 75 190 
3 76 191 192 
3 191 76 193 
3 194 195 196 
3 197 198 199 
3 200 201 202 
3 203 204 205 
3 206 207 208 
3 209 210 211 
3 212 213 214 
3 215 216 217 
3 77 78 79 
3 80 81 82 
3 83 84 218 
3 84 83 85 
3 86 219 87 
3 88 89 90 
3 91 92 93 
3 94 95 96 
3 97 98 99 
3 100 101 102 
3 103 104 105 
3 106 107 108 
3 109 110 111 
3 112 113 114 
3 115 116 117 
3 118 119 120 
3 121 122 123 
3 124 220 125 
3 126 127 128 
3 129 130 131 
3 132 133 134 
3 135 136 137 
3 138 139 140 
3 221 141 142 
3 141 221 143 
3 144 145 146 
