ply
format ascii 1.0
comment VCGLIB generated
element vertex 824
property float x
property float y
property float z
property float nx
property float ny
property float nz
element face 812
property list uchar int vertex_indices
end_header
-294.059 1 -1 0 0 -25.7626 
-294.059 -1 -1 0 0 -12.8813 
-300 -1 -1 0 0 -2 
-300 1 -1 0 0 -1 
-294.059 1 1 0 0 14.8812 
-300 1 1 0 0 1 
-300 -1 1 0 0 2 
-294.06 -1 1 0 0 2 
300 1 -1 2 -0.000152588 3.05175e-005 
300 0.999999 1 1 -7.62939e-005 1.52588e-005 
300 -1 1 2 -0.000152588 3.05175e-005 
300 -1 -1 1 -7.62939e-005 1.52588e-005 
-294.059 -1 -1 0 -25.7625 0 
-294.06 -1 1 0 -12.8812 0 
-300 -1 1 0 -2 0 
-300 -1 -1 0 -1 0 
-300 -1 -1 -2 0.000152588 -9.15527e-005 
-300 -1 1 -1 7.62939e-005 -4.57764e-005 
-300 1 1 -2 0.000152588 -9.15527e-005 
-300 1 -1 -1 7.62939e-005 -4.57764e-005 
-294.059 1 1 0 25.7625 0 
-294.059 1 -1 0 12.8813 0 
-300 1 -1 0 2 0 
-300 1 1 0 1 0 
300 0.999999 1 0 2 1.01328e-006 
300 1 -1 0 1 5.06639e-007 
294.059 1 -1 0 25.7624 1.30522e-005 
294.06 0.999999 1 0 12.8812 6.52614e-006 
288.119 0.999999 1 0 35.6436 1.80584e-005 
288.119 1 -1 0 35.6435 1.80584e-005 
282.178 0.999999 1 0 35.6435 1.80584e-005 
282.178 1 -1 0 35.6436 1.80584e-005 
276.238 0.999999 1 0 35.6436 1.80584e-005 
276.238 1 -1 0 35.6436 1.80584e-005 
270.297 0.999999 1 0 35.6436 1.80584e-005 
270.297 1 -1 0 35.6436 1.80585e-005 
264.357 0.999999 1 0 35.6436 1.80585e-005 
264.356 1 -1 0 35.6436 1.80584e-005 
258.416 0.999999 1 0 35.6435 1.80584e-005 
258.416 1 -1 0 35.6436 1.80584e-005 
252.475 0.999999 1 0 35.6436 1.80584e-005 
252.475 1 -1 0 35.6435 1.80584e-005 
246.535 0.999999 1 0 35.6436 1.80584e-005 
246.535 1 -1 0 35.6436 1.80584e-005 
240.594 0.999999 1 0 35.6436 1.80584e-005 
240.594 1 -1 0 35.6435 1.80584e-005 
234.654 0.999999 1 0 35.6435 1.80584e-005 
234.653 1 -1 0 35.6436 1.80584e-005 
228.713 0.999999 1 0 35.6436 1.80584e-005 
228.713 1 -1 0 35.6435 1.80584e-005 
222.772 0.999999 1 0 35.6435 1.80584e-005 
222.772 1 -1 0 35.6436 1.80584e-005 
216.832 0.999999 1 0 35.6436 1.80584e-005 
216.832 1 -1 0 35.6436 1.80584e-005 
210.891 0.999999 1 0 35.6436 1.80584e-005 
210.891 1 -1 0 35.6436 1.80584e-005 
204.951 0.999999 1 0 35.6436 1.80584e-005 
204.951 1 -1 0 35.6435 1.80584e-005 
199.01 0.999999 1 0 35.6435 1.80584e-005 
199.01 1 -1 0 35.6436 1.80584e-005 
193.069 0.999999 1 0 35.6436 1.80584e-005 
193.069 1 -1 0 35.6435 1.80584e-005 
187.129 0.999999 1 0 35.6435 1.80584e-005 
187.129 1 -1 0 35.6436 1.80584e-005 
181.188 0.999999 1 0 35.6436 1.80584e-005 
181.188 1 -1 0 35.6435 1.80584e-005 
175.248 0.999999 1 0 35.6435 1.80584e-005 
175.248 1 -1 0 35.6436 1.80584e-005 
169.307 0.999999 1 0 35.6436 1.80584e-005 
169.307 1 -1 0 35.6435 1.80584e-005 
163.367 0.999999 1 0 35.6435 1.80584e-005 
163.366 1 -1 0 35.6436 1.80584e-005 
157.426 0.999999 1 0 35.6436 1.80584e-005 
157.426 1 -1 0 35.6435 1.80584e-005 
151.485 0.999999 1 0 35.6435 1.80584e-005 
151.485 1 -1 0 35.6436 1.80584e-005 
145.545 0.999999 1 0 35.6436 1.80585e-005 
145.545 1 -1 0 35.6436 1.80584e-005 
139.604 0.999999 1 0 35.6436 1.80584e-005 
139.604 1 -1 0 35.6436 1.80584e-005 
133.664 0.999999 1 0 35.6436 1.80584e-005 
133.663 1 -1 0 35.6436 1.80584e-005 
127.723 0.999999 1 0 35.6436 1.80584e-005 
127.723 1 -1 0 35.6436 1.80584e-005 
121.782 0.999999 1 0 35.6436 1.80584e-005 
121.782 1 -1 0 35.6436 1.80584e-005 
115.842 0.999999 1 0 35.6436 1.80584e-005 
115.842 1 -1 0 35.6436 1.80584e-005 
109.901 0.999999 1 0 35.6436 1.80584e-005 
109.901 1 -1 0 35.6436 1.80584e-005 
103.961 0.999999 1 0 35.6436 1.80585e-005 
103.96 1 -1 0 35.6436 1.80584e-005 
98.02 0.999999 1 0 35.6436 1.80585e-005 
98.0198 1 -1 0 35.6436 1.80584e-005 
92.0794 0.999999 1 0 35.6436 1.80584e-005 
92.0793 1 -1 0 35.6436 1.80584e-005 
86.1388 0.999999 1 0 35.6436 1.80584e-005 
86.1387 1 -1 0 35.6436 1.80584e-005 
80.1982 0.999999 1 0 35.6436 1.80584e-005 
80.1981 1 -1 0 35.6436 1.80584e-005 
74.2576 0.999999 1 0 35.6436 1.80584e-005 
74.2575 1 -1 0 35.6436 1.80584e-005 
68.317 0.999999 1 0 35.6436 1.80584e-005 
68.3169 1 -1 0 35.6436 1.80584e-005 
62.3764 0.999999 1 0 35.6436 1.80584e-005 
62.3763 1 -1 0 35.6435 1.80584e-005 
56.4358 0.999999 1 0 35.6436 1.80584e-005 
56.4357 1 -1 0 35.6436 1.80584e-005 
50.4952 0.999999 1 0 35.6436 1.80584e-005 
50.4951 1 -1 0 35.6436 1.80584e-005 
44.5546 0.999999 1 0 35.6436 1.80584e-005 
44.5545 1 -1 0 35.6436 1.80584e-005 
38.614 0.999999 1 0 35.6436 1.80584e-005 
38.6139 1 -1 0 35.6435 1.80584e-005 
32.6734 0.999999 1 0 35.6436 1.80584e-005 
32.6733 1 -1 0 35.6436 1.80584e-005 
26.7328 0.999999 1 0 35.6436 1.80584e-005 
26.7327 1 -1 0 35.6436 1.80584e-005 
20.7922 0.999999 1 0 35.6436 1.80584e-005 
20.7921 1 -1 0 35.6436 1.80584e-005 
14.8516 0.999999 1 0 35.6436 1.80584e-005 
14.8515 1 -1 0 35.6436 1.80584e-005 
8.91103 0.999999 1 0 35.6436 1.80584e-005 
8.91095 1 -1 0 35.6436 1.80584e-005 
2.97043 0.999999 1 0 35.6436 1.80584e-005 
2.97036 1 -1 0 35.6436 1.80584e-005 
-2.97016 0.999999 1 0 35.6436 1.80584e-005 
-2.97024 1 -1 0 35.6436 1.80584e-005 
-8.91076 0.999999 1 0 35.6436 1.80584e-005 
-8.91083 1 -1 0 35.6436 1.80584e-005 
-14.8514 0.999999 1 0 35.6436 1.80584e-005 
-14.8514 1 -1 0 35.6436 1.80584e-005 
-20.792 0.999999 1 0 35.6436 1.80584e-005 
-20.792 1 -1 0 35.6436 1.80584e-005 
-26.7325 0.999999 1 0 35.6436 1.80584e-005 
-26.7326 1 -1 0 35.6436 1.80584e-005 
-32.6731 0.999999 1 0 35.6436 1.80584e-005 
-32.6732 1 -1 0 35.6436 1.80584e-005 
-38.6137 0.999999 1 0 35.6436 1.80584e-005 
-38.6138 1 -1 0 35.6436 1.80584e-005 
-44.5543 0.999999 1 0 35.6436 1.80584e-005 
-44.5544 1 -1 0 35.6436 1.80584e-005 
-50.4949 0.999999 1 0 35.6436 1.80584e-005 
-50.495 1 -1 0 35.6436 1.80584e-005 
-56.4355 0.999999 1 0 35.6436 1.80584e-005 
-56.4356 1 -1 0 35.6436 1.80584e-005 
-62.3761 0.999999 1 0 35.6436 1.80584e-005 
-62.3762 1 -1 0 35.6435 1.80584e-005 
-68.3167 0.999999 1 0 35.6436 1.80584e-005 
-68.3168 1 -1 0 35.6436 1.80584e-005 
-74.2573 0.999999 1 0 35.6436 1.80584e-005 
-74.2573 1 -1 0 35.6436 1.80584e-005 
-80.1979 0.999999 1 0 35.6436 1.80584e-005 
-80.1979 1 -1 0 35.6436 1.80584e-005 
-86.1385 0.999999 1 0 35.6436 1.80584e-005 
-86.1385 1 -1 0 35.6436 1.80584e-005 
-92.0791 0.999999 1 0 35.6435 1.80584e-005 
-92.0791 1 -1 0 35.6435 1.80584e-005 
-98.0197 0.999999 1 0 35.6436 1.80584e-005 
-98.0197 1 -1 0 35.6436 1.80584e-005 
-103.96 0.999999 1 0 35.6436 1.80584e-005 
-103.96 1 -1 0 35.6436 1.80584e-005 
-109.901 0.999999 1 0 35.6436 1.80584e-005 
-109.901 1 -1 0 35.6436 1.80584e-005 
-115.841 0.999999 1 0 35.6436 1.80584e-005 
-115.841 1 -1 0 35.6436 1.80584e-005 
-121.782 0.999999 1 0 35.6435 1.80584e-005 
-121.782 1 -1 0 35.6435 1.80584e-005 
-127.723 0.999999 1 0 35.6436 1.80584e-005 
-127.723 1 -1 0 35.6436 1.80584e-005 
-133.663 0.999999 1 0 35.6436 1.80584e-005 
-133.663 1 -1 0 35.6436 1.80584e-005 
-139.604 0.999999 1 0 35.6436 1.80584e-005 
-139.604 1 -1 0 35.6436 1.80584e-005 
-145.544 0.999999 1 0 35.6435 1.80584e-005 
-145.544 1 -1 0 35.6435 1.80584e-005 
-151.485 0.999999 1 0 35.6435 1.80584e-005 
-151.485 1 -1 0 35.6436 1.80584e-005 
-157.426 0.999999 1 0 35.6436 1.80585e-005 
-157.426 1 -1 0 35.6436 1.80584e-005 
-163.366 0.999999 1 0 35.6435 1.80584e-005 
-163.366 1 -1 0 35.6436 1.80584e-005 
-169.307 0.999999 1 0 35.6436 1.80584e-005 
-169.307 1 -1 0 35.6435 1.80584e-005 
-175.247 0.999999 1 0 35.6435 1.80584e-005 
-175.247 1 -1 0 35.6436 1.80584e-005 
-181.188 0.999999 1 0 35.6436 1.80584e-005 
-181.188 1 -1 0 35.6435 1.80584e-005 
-187.129 0.999999 1 0 35.6435 1.80584e-005 
-187.129 1 -1 0 35.6436 1.80584e-005 
-193.069 0.999999 1 2.02656e-006 35.6436 1.80585e-005 
-193.069 1 -1 2.02656e-006 35.6435 1.2039e-005 
-199.01 1 1 2.02656e-006 35.6436 6.01947e-006 
-199.01 1 -1 0 35.6436 0 
-204.95 1 1 0 35.6436 0 
-204.95 1 -1 0 35.6435 0 
-210.891 1 1 0 35.6435 0 
-210.891 1 -1 0 35.6436 0 
-216.832 1 1 0 35.6436 0 
-216.832 1 -1 0 35.6436 0 
-222.772 1 1 0 35.6436 0 
-222.772 1 -1 0 35.6436 0 
-228.713 1 1 0 35.6436 0 
-228.713 1 -1 0 35.6435 0 
-234.653 1 1 0 35.6435 0 
-234.653 1 -1 0 35.6435 0 
-240.594 1 1 0 35.6436 0 
-240.594 1 -1 0 35.6436 0 
-246.535 1 1 0 35.6436 0 
-246.535 1 -1 0 35.6436 0 
-252.475 1 1 0 35.6436 0 
-252.475 1 -1 0 35.6436 0 
-258.416 1 1 0 35.6436 0 
-258.416 1 -1 0 35.6435 0 
-264.356 1 1 0 35.6435 0 
-264.356 1 -1 0 35.6436 0 
-270.297 1 1 0 35.6436 0 
-270.297 1 -1 0 35.6437 0 
-276.238 1 1 0 35.6437 0 
-276.238 1 -1 0 35.6437 0 
-282.178 1 1 0 35.6436 0 
-282.178 1 -1 0 35.6435 0 
-288.119 1 1 0 35.6435 0 
-288.119 1 -1 0 35.6436 0 
300 -1 -1 0 -2 -9.53674e-007 
300 -1 1 0 -1 -4.76837e-007 
294.059 -1 1 0 -25.7623 -1.22844e-005 
294.059 -1 -1 0 -12.8812 -6.14222e-006 
288.119 -1 -1 0 -35.6435 -1.69961e-005 
288.119 -1 1 0 -35.6435 -1.69961e-005 
282.178 -1 -1 0 -35.6436 -1.69962e-005 
282.178 -1 1 0 -35.6436 -1.69962e-005 
276.238 -1 -1 0 -35.6436 -1.69962e-005 
276.237 -1 1 0 -35.6436 -1.69962e-005 
270.297 -1 -1 0 -35.6436 -1.69962e-005 
270.297 -1 1 0 -35.6436 -1.69962e-005 
264.356 -1 -1 0 -35.6436 -1.69962e-005 
264.356 -1 1 0 -35.6435 -1.69961e-005 
258.416 -1 -1 0 -35.6435 -1.69962e-005 
258.416 -1 1 0 -35.6436 -1.69962e-005 
252.475 -1 -1 0 -35.6436 -1.69962e-005 
252.475 -1 1 0 -35.6436 -1.69962e-005 
246.535 -1 -1 0 -35.6436 -1.69962e-005 
246.534 -1 1 0 -35.6436 -1.69962e-005 
240.594 -1 -1 0 -35.6435 -1.69962e-005 
240.594 -1 1 0 -35.6435 -1.69961e-005 
234.653 -1 -1 0 -35.6435 -1.69961e-005 
234.653 -1 1 0 -35.6436 -1.69962e-005 
228.713 -1 -1 0 -35.6436 -1.69962e-005 
228.713 -1 1 0 -35.6436 -1.69962e-005 
222.772 -1 -1 0 -35.6436 -1.69962e-005 
222.772 -1 1 0 -35.6436 -1.69962e-005 
216.832 -1 -1 0 -35.6436 -1.69962e-005 
216.831 -1 1 0 -35.6435 -1.69961e-005 
210.891 -1 -1 0 -35.6435 -1.69962e-005 
210.891 -1 1 0 -35.6436 -1.69962e-005 
204.951 -1 -1 0 -35.6436 -1.69962e-005 
204.95 -1 1 0 -35.6435 -1.69961e-005 
199.01 -1 -1 0 -35.6435 -1.69961e-005 
199.01 -1 1 0 -35.6436 -1.69962e-005 
193.069 -1 -1 0 -35.6436 -1.69962e-005 
193.069 -1 1 0 -35.6435 -1.69962e-005 
187.129 -1 -1 0 -35.6435 -1.69962e-005 
187.129 -1 1 0 -35.6436 -1.69962e-005 
181.188 -1 -1 0 -35.6436 -1.69962e-005 
181.188 -1 1 0 -35.6435 -1.69962e-005 
175.248 -1 -1 0 -35.6435 -1.69962e-005 
175.247 -1 1 0 -35.6436 -1.69962e-005 
169.307 -1 -1 0 -35.6436 -1.69962e-005 
169.307 -1 1 0 -35.6435 -1.69962e-005 
163.366 -1 -1 0 -35.6436 -1.69962e-005 
163.366 -1 1 0 -35.6436 -1.69962e-005 
157.426 -1 -1 0 -35.6436 -1.69962e-005 
157.426 -1 1 0 -35.6435 -1.69962e-005 
151.485 -1 -1 0 -35.6435 -1.69962e-005 
151.485 -1 1 0 -35.6436 -1.69962e-005 
145.545 -1 -1 0 -35.6436 -1.69962e-005 
145.544 -1 1 0 -35.6436 -1.69962e-005 
139.604 -1 -1 0 -35.6436 -1.69962e-005 
139.604 -1 1 0 -35.6436 -1.69962e-005 
133.663 -1 -1 0 -35.6436 -1.69962e-005 
133.663 -1 1 0 -35.6436 -1.69962e-005 
127.723 -1 -1 0 -35.6436 -1.69962e-005 
127.723 -1 1 0 -35.6436 -1.69962e-005 
121.782 -1 -1 0 -35.6436 -1.69962e-005 
121.782 -1 1 0 -35.6436 -1.69962e-005 
115.842 -1 -1 0 -35.6436 -1.69962e-005 
115.841 -1 1 0 -35.6436 -1.69962e-005 
109.901 -1 -1 0 -35.6436 -1.69962e-005 
109.901 -1 1 0 -35.6435 -1.69962e-005 
103.96 -1 -1 0 -35.6436 -1.69962e-005 
103.96 -1 1 0 -35.6436 -1.69962e-005 
98.0198 -1 -1 0 -35.6436 -1.69962e-005 
98.0196 -1 1 0 -35.6436 -1.69962e-005 
92.0793 -1 -1 0 -35.6436 -1.69962e-005 
92.079 -1 1 0 -35.6436 -1.69962e-005 
86.1387 -1 -1 0 -35.6436 -1.69962e-005 
86.1385 -1 1 0 -35.6435 -1.69962e-005 
80.1981 -1 -1 0 -35.6436 -1.69962e-005 
80.1979 -1 1 0 -35.6436 -1.69962e-005 
74.2575 -1 -1 0 -35.6436 -1.69962e-005 
74.2573 -1 1 0 -35.6436 -1.69962e-005 
68.3169 -1 -1 0 -35.6436 -1.69962e-005 
68.3167 -1 1 0 -35.6436 -1.69962e-005 
62.3763 -1 -1 0 -35.6436 -1.69962e-005 
62.3761 -1 1 0 -35.6436 -1.69962e-005 
56.4357 -1 -1 0 -35.6436 -1.69962e-005 
56.4355 -1 1 0 -35.6435 -1.69962e-005 
50.4951 -1 -1 0 -35.6436 -1.69962e-005 
50.4949 -1 1 0 -35.6436 -1.69962e-005 
44.5545 -1 -1 0 -35.6436 -1.69962e-005 
44.5543 -1 1 0 -35.6436 -1.69962e-005 
38.6139 -1 -1 0 -35.6436 -1.69962e-005 
38.6137 -1 1 0 -35.6436 -1.69962e-005 
32.6733 -1 -1 0 -35.6436 -1.69962e-005 
32.6731 -1 1 0 -35.6436 -1.69962e-005 
26.7327 -1 -1 0 -35.6436 -1.69962e-005 
26.7325 -1 1 0 -35.6436 -1.69962e-005 
20.7921 -1 -1 0 -35.6436 -1.69962e-005 
20.7919 -1 1 0 -35.6436 -1.69962e-005 
14.8515 -1 -1 0 -35.6436 -1.69962e-005 
14.8513 -1 1 0 -35.6436 -1.69962e-005 
8.91091 -1 -1 0 -35.6436 -1.69962e-005 
8.91076 -1 1 0 -35.6436 -1.69962e-005 
2.97031 -1 -1 0 -35.6436 -1.69962e-005 
2.97016 -1 1 0 -35.6436 -1.69962e-005 
-2.97028 -1 -1 0 -35.6436 -1.69962e-005 
-2.97043 -1 1 0 -35.6436 -1.69962e-005 
-8.91088 -1 -1 0 -35.6436 -1.69962e-005 
-8.91103 -1 1 0 -35.6436 -1.69962e-005 
-14.8515 -1 -1 0 -35.6436 -1.69962e-005 
-14.8516 -1 1 0 -35.6436 -1.69962e-005 
-20.7921 -1 -1 0 -35.6436 -1.69962e-005 
-20.7922 -1 1 0 -35.6436 -1.69962e-005 
-26.7327 -1 -1 0 -35.6436 -1.69962e-005 
-26.7328 -1 1 0 -35.6436 -1.69962e-005 
-32.6733 -1 -1 0 -35.6436 -1.69962e-005 
-32.6734 -1 1 0 -35.6436 -1.69962e-005 
-38.6138 -1 -1 0 -35.6436 -1.69962e-005 
-38.614 -1 1 0 -35.6436 -1.69962e-005 
-44.5545 -1 -1 0 -35.6436 -1.69962e-005 
-44.5546 -1 1 0 -35.6436 -1.69962e-005 
-50.4951 -1 -1 0 -35.6436 -1.69962e-005 
-50.4952 -1 1 0 -35.6436 -1.69962e-005 
-56.4356 -1 -1 0 -35.6436 -1.69962e-005 
-56.4358 -1 1 0 -35.6436 -1.69962e-005 
-62.3762 -1 -1 0 -35.6436 -1.69962e-005 
-62.3764 -1 1 0 -35.6436 -1.69962e-005 
-68.3168 -1 -1 0 -35.6436 -1.69962e-005 
-68.317 -1 1 0 -35.6436 -1.69962e-005 
-74.2574 -1 -1 0 -35.6436 -1.69962e-005 
-74.2576 -1 1 0 -35.6435 -1.69962e-005 
-80.198 -1 -1 0 -35.6436 -1.69962e-005 
-80.1981 -1 1 0 -35.6436 -1.69962e-005 
-86.1386 -1 -1 0 -35.6436 -1.69962e-005 
-86.1387 -1 1 0 -35.6436 -1.69962e-005 
-92.0792 -1 -1 0 -35.6435 -1.69962e-005 
-92.0793 -1 1 0 -35.6435 -1.69962e-005 
-98.0198 -1 -1 0 -35.6435 -1.69962e-005 
-98.0199 -1 1 0 -35.6435 -1.69962e-005 
-103.96 -1 -1 0 -35.6435 -1.69962e-005 
-103.961 -1 1 0 -35.6436 -1.69962e-005 
-109.901 -1 -1 0 -35.6436 -1.69962e-005 
-109.901 -1 1 0 -35.6436 -1.69962e-005 
-115.842 -1 -1 0 -35.6436 -1.69962e-005 
-115.842 -1 1 0 -35.6435 -1.69962e-005 
-121.782 -1 -1 0 -35.6435 -1.69962e-005 
-121.782 -1 1 0 -35.6436 -1.69962e-005 
-127.723 -1 -1 0 -35.6436 -1.69962e-005 
-127.723 -1 1 0 -35.6436 -1.69962e-005 
-133.663 -1 -1 0 -35.6436 -1.69962e-005 
-133.663 -1 1 0 -35.6435 -1.69962e-005 
-139.604 -1 -1 0 -35.6435 -1.69962e-005 
-139.604 -1 1 0 -35.6436 -1.69962e-005 
-145.545 -1 -1 0 -35.6436 -1.69962e-005 
-145.545 -1 1 0 -35.6436 -1.69962e-005 
-151.485 -1 -1 0 -35.6436 -1.69962e-005 
-151.485 -1 1 0 -35.6436 -1.69962e-005 
-157.426 -1 -1 0 -35.6436 -1.69962e-005 
-157.426 -1 1 0 -35.6435 -1.69962e-005 
-163.366 -1 -1 0 -35.6436 -1.69962e-005 
-163.366 -1 1 0 -35.6436 -1.69962e-005 
-169.307 -1 -1 0 -35.6436 -1.69962e-005 
-169.307 -1 1 0 -35.6435 -1.69962e-005 
-175.247 -1 -1 0 -35.6435 -1.69962e-005 
-175.248 -1 1 0 -35.6436 -1.69962e-005 
-181.188 -1 -1 0 -35.6436 -1.69962e-005 
-181.188 -1 1 0 -35.6435 -1.69962e-005 
-187.129 -1 -1 0 -35.6435 -1.69961e-005 
-187.129 -1 1 0 -35.6436 -1.69962e-005 
-193.069 -1 -1 0 -35.6436 -1.69962e-005 
-193.069 -1 1 0 -35.6436 -1.69962e-005 
-199.01 -1 -1 0 -35.6436 -1.69962e-005 
-199.01 -1 1 0 -35.6436 -1.69962e-005 
-204.95 -1 -1 0 -35.6436 -1.69962e-005 
-204.951 -1 1 -1.90735e-006 -35.6436 -1.13309e-005 
-210.891 -1 -1 -1.90735e-006 -35.6436 -5.66553e-006 
-210.891 -1 1 -1.90735e-006 -35.6436 -1.45519e-010 
-216.832 -1 -1 0 -35.6436 0 
-216.832 -1 1 0 -35.6435 0 
-222.772 -1 -1 0 -35.6435 0 
-222.772 -1 1 0 -35.6436 0 
-228.713 -1 -1 0 -35.6436 0 
-228.713 -1 1 0 -35.6436 0 
-234.653 -1 -1 0 -35.6436 0 
-234.654 -1 1 0 -35.6436 0 
-240.594 -1 -1 0 -35.6436 0 
-240.594 -1 1 0 -35.6435 0 
-246.535 -1 -1 0 -35.6435 0 
-246.535 -1 1 0 -35.6435 0 
-252.475 -1 -1 0 -35.6436 0 
-252.475 -1 1 0 -35.6436 0 
-258.416 -1 -1 0 -35.6436 0 
-258.416 -1 1 0 -35.6436 0 
-264.356 -1 -1 0 -35.6436 0 
-264.357 -1 1 0 -35.6436 0 
-270.297 -1 -1 0 -35.6436 0 
-270.297 -1 1 0 -35.6436 0 
-276.238 -1 -1 0 -35.6436 0 
-276.238 -1 1 0 -35.6436 0 
-282.178 -1 -1 0 -35.6436 0 
-282.178 -1 1 0 -35.6436 0 
-288.119 -1 -1 0 -35.6437 0 
-288.119 -1 1 0 -35.6437 0 
300 0.999999 1 0 0 2 
294.06 0.999999 1 0 0 12.8812 
294.059 -1 1 0 0 25.7624 
300 -1 1 0 0 1 
288.119 0.999999 1 0 0 35.6436 
282.178 0.999999 1 0 0 35.6435 
288.119 -1 1 0 0 35.6435 
276.238 0.999999 1 0 0 35.6435 
282.178 -1 1 0 0 35.6435 
270.297 0.999999 1 0 0 35.6436 
276.237 -1 1 0 0 35.6436 
264.357 0.999999 1 0 0 35.6436 
270.297 -1 1 0 0 35.6436 
258.416 0.999999 1 0 0 35.6435 
264.356 -1 1 0 0 35.6435 
252.475 0.999999 1 0 0 35.6436 
258.416 -1 1 0 0 35.6436 
246.535 0.999999 1 0 0 35.6436 
252.475 -1 1 0 0 35.6436 
240.594 0.999999 1 0 0 35.6436 
246.534 -1 1 0 0 35.6436 
234.654 0.999999 1 0 0 35.6435 
240.594 -1 1 0 0 35.6435 
228.713 0.999999 1 0 0 35.6436 
234.653 -1 1 0 0 35.6436 
222.772 0.999999 1 0 0 35.6436 
228.713 -1 1 0 0 35.6436 
216.832 0.999999 1 0 0 35.6435 
222.772 -1 1 0 0 35.6436 
210.891 0.999999 1 0 0 35.6436 
216.831 -1 1 0 0 35.6435 
204.951 0.999999 1 0 0 35.6436 
210.891 -1 1 0 0 35.6436 
199.01 0.999999 1 0 0 35.6435 
204.95 -1 1 0 0 35.6435 
193.069 0.999999 1 0 0 35.6436 
199.01 -1 1 0 0 35.6436 
187.129 0.999999 1 0 0 35.6436 
193.069 -1 1 0 0 35.6436 
181.188 0.999999 1 0 0 35.6436 
187.129 -1 1 0 0 35.6436 
175.248 0.999999 1 0 0 35.6435 
181.188 -1 1 0 0 35.6435 
169.307 0.999999 1 0 0 35.6436 
175.247 -1 1 0 0 35.6436 
163.367 0.999999 1 0 0 35.6435 
169.307 -1 1 0 0 35.6435 
157.426 0.999999 1 0 0 35.6436 
163.366 -1 1 0 0 35.6436 
151.485 0.999999 1 0 0 35.6435 
157.426 -1 1 0 0 35.6436 
145.545 0.999999 1 0 0 35.6436 
151.485 -1 1 0 0 35.6436 
139.604 0.999999 1 0 0 35.6436 
145.544 -1 1 0 0 35.6436 
133.664 0.999999 1 0 0 35.6435 
139.604 -1 1 0 0 35.6436 
127.723 0.999999 1 0 0 35.6436 
133.663 -1 1 0 0 35.6435 
121.782 0.999999 1 0 0 35.6436 
127.723 -1 1 0 0 35.6436 
115.842 0.999999 1 0 0 35.6436 
121.782 -1 1 0 0 35.6436 
109.901 0.999999 1 0 0 35.6436 
115.841 -1 1 0 0 35.6435 
103.961 0.999999 1 0 0 35.6436 
109.901 -1 1 0 0 35.6436 
98.02 0.999999 1 0 0 35.6436 
103.96 -1 1 0 0 35.6436 
92.0794 0.999999 1 0 0 35.6436 
98.0196 -1 1 0 0 35.6436 
86.1388 0.999999 1 0 0 35.6435 
92.079 -1 1 0 0 35.6435 
80.1982 0.999999 1 0 0 35.6436 
86.1385 -1 1 0 0 35.6435 
74.2576 0.999999 1 0 0 35.6436 
80.1979 -1 1 0 0 35.6436 
68.317 0.999999 1 0 0 35.6436 
74.2573 -1 1 0 0 35.6436 
62.3764 0.999999 1 0 0 35.6436 
68.3167 -1 1 0 0 35.6436 
56.4358 0.999999 1 0 0 35.6436 
62.3761 -1 1 0 0 35.6435 
50.4952 0.999999 1 0 0 35.6436 
56.4355 -1 1 0 0 35.6436 
44.5546 0.999999 1 0 0 35.6436 
50.4949 -1 1 0 0 35.6436 
38.614 0.999999 1 0 0 35.6436 
44.5543 -1 1 0 0 35.6436 
32.6734 0.999999 1 0 0 35.6436 
38.6137 -1 1 0 0 35.6436 
26.7328 0.999999 1 0 0 35.6436 
32.6731 -1 1 0 0 35.6436 
20.7922 0.999999 1 0 0 35.6436 
26.7325 -1 1 0 0 35.6436 
14.8516 0.999999 1 0 0 35.6436 
20.7919 -1 1 0 0 35.6436 
8.91103 0.999999 1 0 0 35.6436 
14.8513 -1 1 0 0 35.6436 
2.97043 0.999999 1 0 0 35.6436 
8.91076 -1 1 0 0 35.6436 
-2.97016 0.999999 1 0 0 35.6436 
2.97016 -1 1 0 0 35.6436 
-8.91076 0.999999 1 0 0 35.6436 
-2.97043 -1 1 0 0 35.6436 
-14.8514 0.999999 1 0 0 35.6436 
-8.91103 -1 1 0 0 35.6436 
-20.792 0.999999 1 0 0 35.6436 
-14.8516 -1 1 0 0 35.6436 
-26.7325 0.999999 1 0 0 35.6436 
-20.7922 -1 1 0 0 35.6436 
-32.6731 0.999999 1 0 0 35.6436 
-26.7328 -1 1 0 0 35.6436 
-38.6137 0.999999 1 0 0 35.6436 
-32.6734 -1 1 0 0 35.6436 
-44.5543 0.999999 1 0 0 35.6436 
-38.614 -1 1 0 0 35.6435 
-50.4949 0.999999 1 0 0 35.6436 
-44.5546 -1 1 0 0 35.6436 
-56.4355 0.999999 1 0 0 35.6436 
-50.4952 -1 1 0 0 35.6436 
-62.3761 0.999999 1 0 0 35.6436 
-56.4358 -1 1 0 0 35.6436 
-68.3167 0.999999 1 0 0 35.6436 
-62.3764 -1 1 0 0 35.6436 
-74.2573 0.999999 1 0 0 35.6436 
-68.317 -1 1 0 0 35.6436 
-80.1979 0.999999 1 0 0 35.6436 
-74.2576 -1 1 0 0 35.6436 
-86.1385 0.999999 1 0 0 35.6436 
-80.1981 -1 1 0 0 35.6436 
-92.0791 0.999999 1 0 0 35.6435 
-86.1387 -1 1 0 0 35.6436 
-98.0197 0.999999 1 0 0 35.6436 
-92.0793 -1 1 0 0 35.6435 
-103.96 0.999999 1 0 0 35.6436 
-98.0199 -1 1 0 0 35.6436 
-109.901 0.999999 1 0 0 35.6436 
-103.961 -1 1 0 0 35.6436 
-115.841 0.999999 1 0 0 35.6436 
-109.901 -1 1 0 0 35.6436 
-121.782 0.999999 1 0 0 35.6435 
-115.842 -1 1 0 0 35.6435 
-127.723 0.999999 1 0 0 35.6436 
-121.782 -1 1 0 0 35.6436 
-133.663 0.999999 1 0 0 35.6436 
-127.723 -1 1 0 0 35.6436 
-139.604 0.999999 1 0 0 35.6435 
-133.663 -1 1 0 0 35.6436 
-145.544 0.999999 1 0 0 35.6435 
-139.604 -1 1 0 0 35.6435 
-151.485 0.999999 1 0 0 35.6436 
-145.545 -1 1 0 0 35.6436 
-157.426 0.999999 1 0 0 35.6436 
-151.485 -1 1 0 0 35.6436 
-163.366 0.999999 1 0 0 35.6435 
-157.426 -1 1 0 0 35.6435 
-169.307 0.999999 1 0 0 35.6436 
-163.366 -1 1 0 0 35.6436 
-175.247 0.999999 1 0 0 35.6435 
-169.307 -1 1 0 0 35.6435 
-181.188 0.999999 1 0 0 35.6436 
-175.248 -1 1 0 0 35.6436 
-187.129 0.999999 1 0 0 35.6435 
-181.188 -1 1 0 0 35.6435 
-193.069 0.999999 1 0 0 35.6436 
-187.129 -1 1 0 0 35.6436 
-199.01 1 1 0 0 35.6436 
-193.069 -1 1 0 0 35.6435 
-204.95 1 1 0 0 35.6436 
-199.01 -1 1 0 0 35.6436 
-210.891 1 1 0 0 35.6436 
-204.951 -1 1 0 0 35.6436 
-216.832 1 1 0 0 35.6435 
-210.891 -1 1 0 0 35.6436 
-222.772 1 1 0 0 35.6436 
-216.832 -1 1 0 0 35.6435 
-228.713 1 1 0 0 47.5249 
-222.772 -1 1 0 0 35.6436 
-234.654 -1 1 0 0 35.6436 
-228.713 -1 1 0 0 23.7624 
-234.653 1 1 0 0 35.6435 
-240.594 -1 1 0 0 47.5247 
-246.535 1 1 0 0 47.5248 
-240.594 1 1 0 0 23.7624 
-252.475 -1 1 0 0 47.5248 
-246.535 -1 1 0 0 23.7624 
-258.416 1 1 0 0 35.6436 
-252.475 1 1 0 0 23.7624 
-264.356 1 1 0 0 35.6435 
-258.416 -1 1 0 0 35.6435 
-270.297 1 1 0 0 35.6436 
-264.357 -1 1 0 0 35.6436 
-276.238 1 1 0 0 35.6437 
-270.297 -1 1 0 0 35.6437 
-282.178 1 1 0 0 35.6436 
-276.238 -1 1 0 0 35.6437 
-288.119 1 1 0 0 35.6436 
-282.178 -1 1 0 0 35.6436 
-288.119 -1 1 0 0 24.7624 
300 1 -1 0 0 -2 
300 -1 -1 0 0 -1 
294.059 -1 -1 0 0 -25.7623 
294.059 1 -1 0 0 -12.8812 
288.119 1 -1 0 0 -35.6435 
288.119 -1 -1 0 0 -35.6435 
282.178 1 -1 0 0 -35.6436 
282.178 -1 -1 0 0 -35.6436 
276.238 1 -1 0 0 -35.6436 
276.238 -1 -1 0 0 -35.6436 
270.297 1 -1 0 0 -35.6436 
270.297 -1 -1 0 0 -35.6436 
264.356 1 -1 0 0 -35.6436 
264.356 -1 -1 0 0 -35.6436 
258.416 1 -1 0 0 -35.6435 
258.416 -1 -1 0 0 -35.6436 
252.475 1 -1 0 0 -35.6436 
252.475 -1 -1 0 0 -35.6435 
246.535 1 -1 0 0 -35.6435 
246.535 -1 -1 0 0 -35.6436 
240.594 1 -1 0 0 -35.6436 
240.594 -1 -1 0 0 -35.6435 
234.653 1 -1 0 0 -35.6435 
234.653 -1 -1 0 0 -35.6436 
228.713 1 -1 0 0 -35.6436 
228.713 -1 -1 0 0 -35.6435 
222.772 1 -1 0 0 -35.6436 
222.772 -1 -1 0 0 -35.6436 
216.832 1 -1 0 0 -35.6436 
216.832 -1 -1 0 0 -35.6436 
210.891 1 -1 0 0 -35.6435 
210.891 -1 -1 0 0 -35.6436 
204.951 1 -1 0 0 -35.6435 
204.951 -1 -1 0 0 -35.6435 
199.01 1 -1 0 0 -35.6435 
199.01 -1 -1 0 0 -35.6436 
193.069 1 -1 0 0 -35.6436 
193.069 -1 -1 0 0 -35.6435 
187.129 1 -1 0 0 -35.6435 
187.129 -1 -1 0 0 -35.6436 
181.188 1 -1 0 0 -35.6436 
181.188 -1 -1 0 0 -35.6436 
175.248 1 -1 0 0 -35.6435 
175.248 -1 -1 0 0 -35.6436 
169.307 1 -1 0 0 -35.6436 
169.307 -1 -1 0 0 -35.6435 
163.366 1 -1 0 0 -35.6436 
163.366 -1 -1 0 0 -35.6436 
157.426 1 -1 0 0 -35.6436 
157.426 -1 -1 0 0 -35.6435 
151.485 1 -1 0 0 -35.6435 
151.485 -1 -1 0 0 -35.6436 
145.545 1 -1 0 0 -35.6436 
145.545 -1 -1 0 0 -35.6436 
139.604 1 -1 0 0 -35.6435 
139.604 -1 -1 0 0 -35.6436 
133.663 1 -1 0 0 -35.6436 
133.663 -1 -1 0 0 -35.6436 
127.723 1 -1 0 0 -35.6436 
127.723 -1 -1 0 0 -35.6436 
121.782 1 -1 0 0 -35.6435 
121.782 -1 -1 0 0 -35.6435 
115.842 1 -1 0 0 -35.6436 
115.842 -1 -1 0 0 -35.6436 
109.901 1 -1 0 0 -35.6436 
109.901 -1 -1 0 0 -35.6436 
103.96 1 -1 0 0 -35.6436 
103.96 -1 -1 0 0 -35.6436 
98.0198 1 -1 0 0 -35.6436 
98.0198 -1 -1 0 0 -35.6436 
92.0793 1 -1 0 0 -35.6436 
92.0793 -1 -1 0 0 -35.6436 
86.1387 1 -1 0 0 -35.6436 
86.1387 -1 -1 0 0 -35.6436 
80.1981 1 -1 0 0 -35.6435 
80.1981 -1 -1 0 0 -35.6436 
74.2575 1 -1 0 0 -35.6436 
74.2575 -1 -1 0 0 -35.6436 
68.3169 1 -1 0 0 -35.6436 
68.3169 -1 -1 0 0 -35.6436 
62.3763 1 -1 0 0 -35.6436 
62.3763 -1 -1 0 0 -35.6436 
56.4357 1 -1 0 0 -35.6436 
56.4357 -1 -1 0 0 -35.6436 
50.4951 1 -1 0 0 -35.6436 
50.4951 -1 -1 0 0 -35.6436 
44.5545 1 -1 0 0 -35.6436 
44.5545 -1 -1 0 0 -35.6436 
38.6139 1 -1 0 0 -35.6436 
38.6139 -1 -1 0 0 -35.6436 
32.6733 1 -1 0 0 -35.6436 
32.6733 -1 -1 0 0 -35.6436 
26.7327 1 -1 0 0 -35.6436 
26.7327 -1 -1 0 0 -35.6436 
20.7921 1 -1 0 0 -35.6436 
20.7921 -1 -1 0 0 -35.6436 
14.8515 1 -1 0 0 -35.6436 
14.8515 -1 -1 0 0 -35.6436 
8.91095 1 -1 0 0 -35.6436 
8.91091 -1 -1 0 0 -35.6436 
2.97036 1 -1 0 0 -35.6436 
2.97031 -1 -1 0 0 -35.6436 
-2.97024 1 -1 0 0 -35.6436 
-2.97028 -1 -1 0 0 -35.6436 
-8.91083 1 -1 0 0 -35.6436 
-8.91088 -1 -1 0 0 -35.6436 
-14.8514 1 -1 0 0 -35.6436 
-14.8515 -1 -1 0 0 -35.6436 
-20.792 1 -1 0 0 -35.6436 
-20.7921 -1 -1 0 0 -35.6436 
-26.7326 1 -1 0 0 -35.6436 
-26.7327 -1 -1 0 0 -35.6436 
-32.6732 1 -1 0 0 -35.6436 
-32.6733 -1 -1 0 0 -35.6436 
-38.6138 1 -1 0 0 -35.6436 
-38.6138 -1 -1 0 0 -35.6436 
-44.5544 1 -1 0 0 -35.6436 
-44.5545 -1 -1 0 0 -35.6436 
-50.495 1 -1 0 0 -35.6436 
-50.4951 -1 -1 0 0 -35.6436 
-56.4356 1 -1 0 0 -35.6436 
-56.4356 -1 -1 0 0 -35.6436 
-62.3762 1 -1 0 0 -35.6436 
-62.3762 -1 -1 0 0 -35.6436 
-68.3168 1 -1 0 0 -35.6436 
-68.3168 -1 -1 0 0 -35.6436 
-74.2573 1 -1 0 0 -35.6436 
-74.2574 -1 -1 0 0 -35.6436 
-80.1979 1 -1 0 0 -35.6436 
-80.198 -1 -1 0 0 -35.6436 
-86.1385 1 -1 0 0 -35.6436 
-86.1386 -1 -1 0 0 -35.6436 
-92.0791 1 -1 0 0 -35.6435 
-92.0792 -1 -1 0 0 -35.6435 
-98.0197 1 -1 0 0 -35.6435 
-98.0198 -1 -1 0 0 -35.6435 
-103.96 1 -1 0 0 -35.6435 
-103.96 -1 -1 0 0 -35.6435 
-109.901 1 -1 0 0 -35.6436 
-109.901 -1 -1 0 0 -35.6436 
-115.841 1 -1 0 0 -35.6436 
-115.842 -1 -1 0 0 -35.6436 
-121.782 1 -1 0 0 -35.6435 
-121.782 -1 -1 0 0 -35.6435 
-127.723 1 -1 0 0 -35.6435 
-127.723 -1 -1 0 0 -35.6436 
-133.663 1 -1 0 0 -35.6436 
-133.663 -1 -1 0 0 -35.6436 
-139.604 1 -1 0 0 -35.6436 
-139.604 -1 -1 0 0 -35.6436 
-145.544 1 -1 0 0 -35.6435 
-145.545 -1 -1 0 0 -35.6435 
-151.485 1 -1 0 0 -35.6435 
-151.485 -1 -1 0 0 -35.6436 
-157.426 1 -1 0 0 -35.6436 
-157.426 -1 -1 0 0 -35.6435 
-163.366 1 -1 0 0 -35.6435 
-163.366 -1 -1 0 0 -35.6436 
-169.307 1 -1 0 0 -35.6436 
-169.307 -1 -1 0 0 -35.6436 
-175.247 1 -1 0 0 -35.6436 
-175.247 -1 -1 0 0 -35.6436 
-181.188 1 -1 0 0 -35.6436 
-181.188 -1 -1 0 0 -35.6435 
-187.129 1 -1 0 0 -35.6435 
-187.129 -1 -1 0 0 -35.6436 
-193.069 1 -1 0 0 -35.6436 
-193.069 -1 -1 0 0 -35.6435 
-199.01 1 -1 0 0 -35.6435 
-199.01 -1 -1 0 0 -35.6436 
-204.95 1 -1 0 0 -35.6436 
-204.95 -1 -1 0 0 -35.6436 
-210.891 1 -1 0 0 -35.6435 
-210.891 -1 -1 0 0 -35.6436 
-216.832 1 -1 0 0 -35.6436 
-216.832 -1 -1 0 0 -35.6436 
-222.772 1 -1 0 0 -35.6436 
-222.772 -1 -1 0 0 -35.6435 
-228.713 1 -1 0 0 -35.6435 
-228.713 -1 -1 0 0 -35.6435 
-234.653 1 -1 0 0 -35.6435 
-234.653 -1 -1 0 0 -35.6436 
-240.594 1 -1 0 0 -35.6437 
-240.594 -1 -1 0 0 -35.6437 
-246.535 1 -1 0 0 -35.6436 
-246.535 -1 -1 0 0 -35.6435 
-252.475 1 -1 0 0 -35.6435 
-252.475 -1 -1 0 0 -35.6436 
-258.416 1 -1 0 0 -35.6436 
-258.416 -1 -1 0 0 -35.6436 
-264.356 1 -1 0 0 -35.6436 
-264.356 -1 -1 0 0 -35.6437 
-270.297 1 -1 0 0 -47.5248 
-276.238 -1 -1 0 0 -47.5247 
-276.238 1 -1 0 0 -23.7624 
-282.178 1 -1 0 0 -35.6435 
-282.178 -1 -1 0 0 -35.6436 
-288.119 1 -1 0 0 -35.6437 
-288.119 -1 -1 0 0 -35.6438 
-270.297 -1 -1 0 0 -23.7624 
3 0 1 2 
3 0 2 3 
3 4 5 6 
3 4 6 7 
3 8 9 10 
3 8 10 11 
3 12 13 14 
3 12 14 15 
3 16 17 18 
3 16 18 19 
3 20 21 22 
3 20 22 23 
3 24 25 26 
3 24 26 27 
3 26 28 27 
3 29 30 28 
3 31 32 30 
3 33 34 32 
3 35 36 34 
3 37 38 36 
3 39 40 38 
3 41 42 40 
3 43 44 42 
3 45 46 44 
3 47 48 46 
3 49 50 48 
3 51 52 50 
3 53 54 52 
3 55 56 54 
3 57 58 56 
3 59 60 58 
3 61 62 60 
3 63 64 62 
3 65 66 64 
3 67 68 66 
3 69 70 68 
3 71 72 70 
3 73 74 72 
3 75 76 74 
3 77 78 76 
3 79 80 78 
3 81 82 80 
3 83 84 82 
3 85 86 84 
3 87 88 86 
3 89 90 88 
3 91 92 90 
3 93 94 92 
3 95 96 94 
3 97 98 96 
3 99 100 98 
3 101 102 100 
3 103 104 102 
3 105 106 104 
3 107 108 106 
3 109 110 108 
3 111 112 110 
3 113 114 112 
3 115 116 114 
3 117 118 116 
3 119 120 118 
3 121 122 120 
3 123 124 122 
3 125 126 124 
3 127 128 126 
3 129 130 128 
3 131 132 130 
3 133 134 132 
3 135 136 134 
3 137 138 136 
3 139 140 138 
3 141 142 140 
3 143 144 142 
3 145 146 144 
3 147 148 146 
3 149 150 148 
3 151 152 150 
3 153 154 152 
3 155 156 154 
3 157 158 156 
3 159 160 158 
3 161 162 160 
3 163 164 162 
3 165 166 164 
3 167 168 166 
3 169 170 168 
3 171 172 170 
3 173 174 172 
3 175 176 174 
3 177 178 176 
3 179 180 178 
3 181 182 180 
3 183 184 182 
3 185 186 184 
3 187 188 186 
3 189 190 188 
3 191 192 190 
3 193 194 192 
3 195 196 194 
3 197 198 196 
3 199 200 198 
3 201 202 200 
3 203 204 202 
3 205 206 204 
3 207 208 206 
3 209 210 208 
3 211 212 210 
3 213 214 212 
3 215 216 214 
3 217 218 216 
3 219 220 218 
3 221 222 220 
3 223 20 222 
3 224 225 226 
3 224 226 227 
3 226 228 227 
3 229 230 228 
3 231 232 230 
3 233 234 232 
3 235 236 234 
3 237 238 236 
3 239 240 238 
3 241 242 240 
3 243 244 242 
3 245 246 244 
3 247 248 246 
3 249 250 248 
3 251 252 250 
3 253 254 252 
3 255 256 254 
3 257 258 256 
3 259 260 258 
3 261 262 260 
3 263 264 262 
3 265 266 264 
3 267 268 266 
3 269 270 268 
3 271 272 270 
3 273 274 272 
3 275 276 274 
3 277 278 276 
3 279 280 278 
3 281 282 280 
3 283 284 282 
3 285 286 284 
3 287 288 286 
3 289 290 288 
3 291 292 290 
3 293 294 292 
3 295 296 294 
3 297 298 296 
3 299 300 298 
3 301 302 300 
3 303 304 302 
3 305 306 304 
3 307 308 306 
3 309 310 308 
3 311 312 310 
3 313 314 312 
3 315 316 314 
3 317 318 316 
3 319 320 318 
3 321 322 320 
3 323 324 322 
3 325 326 324 
3 327 328 326 
3 329 330 328 
3 331 332 330 
3 333 334 332 
3 335 336 334 
3 337 338 336 
3 339 340 338 
3 341 342 340 
3 343 344 342 
3 345 346 344 
3 347 348 346 
3 349 350 348 
3 351 352 350 
3 353 354 352 
3 355 356 354 
3 357 358 356 
3 359 360 358 
3 361 362 360 
3 363 364 362 
3 365 366 364 
3 367 368 366 
3 369 370 368 
3 371 372 370 
3 373 374 372 
3 375 376 374 
3 377 378 376 
3 379 380 378 
3 381 382 380 
3 383 384 382 
3 385 386 384 
3 387 388 386 
3 389 390 388 
3 391 392 390 
3 393 394 392 
3 395 396 394 
3 397 398 396 
3 399 400 398 
3 401 402 400 
3 403 404 402 
3 405 406 404 
3 407 408 406 
3 409 410 408 
3 411 412 410 
3 413 414 412 
3 415 416 414 
3 417 418 416 
3 419 420 418 
3 421 422 420 
3 423 12 422 
3 424 425 426 
3 424 426 427 
3 428 426 425 
3 429 430 428 
3 431 432 429 
3 433 434 431 
3 435 436 433 
3 437 438 435 
3 439 440 437 
3 441 442 439 
3 443 444 441 
3 445 446 443 
3 447 448 445 
3 449 450 447 
3 451 452 449 
3 453 454 451 
3 455 456 453 
3 457 458 455 
3 459 460 457 
3 461 462 459 
3 463 464 461 
3 465 466 463 
3 467 468 465 
3 469 470 467 
3 471 472 469 
3 473 474 471 
3 475 476 473 
3 477 478 475 
3 479 480 477 
3 481 482 479 
3 483 484 481 
3 485 486 483 
3 487 488 485 
3 489 490 487 
3 491 492 489 
3 493 494 491 
3 495 496 493 
3 497 498 495 
3 499 500 497 
3 501 502 499 
3 503 504 501 
3 505 506 503 
3 507 508 505 
3 509 510 507 
3 511 512 509 
3 513 514 511 
3 515 516 513 
3 517 518 515 
3 519 520 517 
3 521 522 519 
3 523 524 521 
3 525 526 523 
3 527 528 525 
3 529 530 527 
3 531 532 529 
3 533 534 531 
3 535 536 533 
3 537 538 535 
3 539 540 537 
3 541 542 539 
3 543 544 541 
3 545 546 543 
3 547 548 545 
3 549 550 547 
3 551 552 549 
3 553 554 551 
3 555 556 553 
3 557 558 555 
3 559 560 557 
3 561 562 559 
3 563 564 561 
3 565 566 563 
3 567 568 565 
3 569 570 567 
3 571 572 569 
3 573 574 571 
3 575 576 573 
3 577 578 575 
3 579 580 577 
3 581 582 579 
3 583 584 581 
3 585 586 583 
3 587 588 585 
3 589 590 587 
3 591 592 589 
3 593 594 591 
3 595 596 593 
3 597 598 595 
3 599 600 597 
3 601 602 599 
3 601 603 604 
3 605 606 603 
3 607 606 608 
3 607 609 610 
3 611 609 612 
3 613 614 611 
3 615 616 613 
3 617 618 615 
3 619 620 617 
3 621 622 619 
3 4 623 621 
3 624 625 626 
3 624 626 627 
3 626 628 627 
3 629 630 628 
3 631 632 630 
3 633 634 632 
3 635 636 634 
3 637 638 636 
3 639 640 638 
3 641 642 640 
3 643 644 642 
3 645 646 644 
3 647 648 646 
3 649 650 648 
3 651 652 650 
3 653 654 652 
3 655 656 654 
3 657 658 656 
3 659 660 658 
3 661 662 660 
3 663 664 662 
3 665 666 664 
3 667 668 666 
3 669 670 668 
3 671 672 670 
3 673 674 672 
3 675 676 674 
3 677 678 676 
3 679 680 678 
3 681 682 680 
3 683 684 682 
3 685 686 684 
3 687 688 686 
3 689 690 688 
3 691 692 690 
3 693 694 692 
3 695 696 694 
3 697 698 696 
3 699 700 698 
3 701 702 700 
3 703 704 702 
3 705 706 704 
3 707 708 706 
3 709 710 708 
3 711 712 710 
3 713 714 712 
3 715 716 714 
3 717 718 716 
3 719 720 718 
3 721 722 720 
3 723 724 722 
3 725 726 724 
3 727 728 726 
3 729 730 728 
3 731 732 730 
3 733 734 732 
3 735 736 734 
3 737 738 736 
3 739 740 738 
3 741 742 740 
3 743 744 742 
3 745 746 744 
3 747 748 746 
3 749 750 748 
3 751 752 750 
3 753 754 752 
3 755 756 754 
3 757 758 756 
3 759 760 758 
3 761 762 760 
3 763 764 762 
3 765 766 764 
3 767 768 766 
3 769 770 768 
3 771 772 770 
3 773 774 772 
3 775 776 774 
3 777 778 776 
3 779 780 778 
3 781 782 780 
3 783 784 782 
3 785 786 784 
3 787 788 786 
3 789 790 788 
3 791 792 790 
3 793 794 792 
3 795 796 794 
3 797 798 796 
3 799 800 798 
3 801 802 800 
3 803 804 802 
3 805 806 804 
3 807 808 806 
3 809 810 808 
3 811 812 810 
3 813 814 812 
3 815 816 814 
3 816 817 818 
3 817 819 818 
3 820 821 819 
3 822 0 821 
3 26 29 28 
3 29 31 30 
3 31 33 32 
3 33 35 34 
3 35 37 36 
3 37 39 38 
3 39 41 40 
3 41 43 42 
3 43 45 44 
3 45 47 46 
3 47 49 48 
3 49 51 50 
3 51 53 52 
3 53 55 54 
3 55 57 56 
3 57 59 58 
3 59 61 60 
3 61 63 62 
3 63 65 64 
3 65 67 66 
3 67 69 68 
3 69 71 70 
3 71 73 72 
3 73 75 74 
3 75 77 76 
3 77 79 78 
3 79 81 80 
3 81 83 82 
3 83 85 84 
3 85 87 86 
3 87 89 88 
3 89 91 90 
3 91 93 92 
3 93 95 94 
3 95 97 96 
3 97 99 98 
3 99 101 100 
3 101 103 102 
3 103 105 104 
3 105 107 106 
3 107 109 108 
3 109 111 110 
3 111 113 112 
3 113 115 114 
3 115 117 116 
3 117 119 118 
3 119 121 120 
3 121 123 122 
3 123 125 124 
3 125 127 126 
3 127 129 128 
3 129 131 130 
3 131 133 132 
3 133 135 134 
3 135 137 136 
3 137 139 138 
3 139 141 140 
3 141 143 142 
3 143 145 144 
3 145 147 146 
3 147 149 148 
3 149 151 150 
3 151 153 152 
3 153 155 154 
3 155 157 156 
3 157 159 158 
3 159 161 160 
3 161 163 162 
3 163 165 164 
3 165 167 166 
3 167 169 168 
3 169 171 170 
3 171 173 172 
3 173 175 174 
3 175 177 176 
3 177 179 178 
3 179 181 180 
3 181 183 182 
3 183 185 184 
3 185 187 186 
3 187 189 188 
3 189 191 190 
3 191 193 192 
3 193 195 194 
3 195 197 196 
3 197 199 198 
3 199 201 200 
3 201 203 202 
3 203 205 204 
3 205 207 206 
3 207 209 208 
3 209 211 210 
3 211 213 212 
3 213 215 214 
3 215 217 216 
3 217 219 218 
3 219 221 220 
3 221 223 222 
3 223 21 20 
3 226 229 228 
3 229 231 230 
3 231 233 232 
3 233 235 234 
3 235 237 236 
3 237 239 238 
3 239 241 240 
3 241 243 242 
3 243 245 244 
3 245 247 246 
3 247 249 248 
3 249 251 250 
3 251 253 252 
3 253 255 254 
3 255 257 256 
3 257 259 258 
3 259 261 260 
3 261 263 262 
3 263 265 264 
3 265 267 266 
3 267 269 268 
3 269 271 270 
3 271 273 272 
3 273 275 274 
3 275 277 276 
3 277 279 278 
3 279 281 280 
3 281 283 282 
3 283 285 284 
3 285 287 286 
3 287 289 288 
3 289 291 290 
3 291 293 292 
3 293 295 294 
3 295 297 296 
3 297 299 298 
3 299 301 300 
3 301 303 302 
3 303 305 304 
3 305 307 306 
3 307 309 308 
3 309 311 310 
3 311 313 312 
3 313 315 314 
3 315 317 316 
3 317 319 318 
3 319 321 320 
3 321 323 322 
3 323 325 324 
3 325 327 326 
3 327 329 328 
3 329 331 330 
3 331 333 332 
3 333 335 334 
3 335 337 336 
3 337 339 338 
3 339 341 340 
3 341 343 342 
3 343 345 344 
3 345 347 346 
3 347 349 348 
3 349 351 350 
3 351 353 352 
3 353 355 354 
3 355 357 356 
3 357 359 358 
3 359 361 360 
3 361 363 362 
3 363 365 364 
3 365 367 366 
3 367 369 368 
3 369 371 370 
3 371 373 372 
3 373 375 374 
3 375 377 376 
3 377 379 378 
3 379 381 380 
3 381 383 382 
3 383 385 384 
3 385 387 386 
3 387 389 388 
3 389 391 390 
3 391 393 392 
3 393 395 394 
3 395 397 396 
3 397 399 398 
3 399 401 400 
3 401 403 402 
3 403 405 404 
3 405 407 406 
3 407 409 408 
3 409 411 410 
3 411 413 412 
3 413 415 414 
3 415 417 416 
3 417 419 418 
3 419 421 420 
3 421 423 422 
3 423 13 12 
3 428 430 426 
3 429 432 430 
3 431 434 432 
3 433 436 434 
3 435 438 436 
3 437 440 438 
3 439 442 440 
3 441 444 442 
3 443 446 444 
3 445 448 446 
3 447 450 448 
3 449 452 450 
3 451 454 452 
3 453 456 454 
3 455 458 456 
3 457 460 458 
3 459 462 460 
3 461 464 462 
3 463 466 464 
3 465 468 466 
3 467 470 468 
3 469 472 470 
3 471 474 472 
3 473 476 474 
3 475 478 476 
3 477 480 478 
3 479 482 480 
3 481 484 482 
3 483 486 484 
3 485 488 486 
3 487 490 488 
3 489 492 490 
3 491 494 492 
3 493 496 494 
3 495 498 496 
3 497 500 498 
3 499 502 500 
3 501 504 502 
3 503 506 504 
3 505 508 506 
3 507 510 508 
3 509 512 510 
3 511 514 512 
3 513 516 514 
3 515 518 516 
3 517 520 518 
3 519 522 520 
3 521 524 522 
3 523 526 524 
3 525 528 526 
3 527 530 528 
3 529 532 530 
3 531 534 532 
3 533 536 534 
3 535 538 536 
3 537 540 538 
3 539 542 540 
3 541 544 542 
3 543 546 544 
3 545 548 546 
3 547 550 548 
3 549 552 550 
3 551 554 552 
3 553 556 554 
3 555 558 556 
3 557 560 558 
3 559 562 560 
3 561 564 562 
3 563 566 564 
3 565 568 566 
3 567 570 568 
3 569 572 570 
3 571 574 572 
3 573 576 574 
3 575 578 576 
3 577 580 578 
3 579 582 580 
3 581 584 582 
3 583 586 584 
3 585 588 586 
3 587 590 588 
3 589 592 590 
3 591 594 592 
3 593 596 594 
3 595 598 596 
3 597 600 598 
3 599 602 600 
3 601 604 602 
3 601 605 603 
3 605 608 606 
3 607 610 606 
3 607 612 609 
3 611 614 609 
3 613 616 614 
3 615 618 616 
3 617 620 618 
3 619 622 620 
3 621 623 622 
3 4 7 623 
3 626 629 628 
3 629 631 630 
3 631 633 632 
3 633 635 634 
3 635 637 636 
3 637 639 638 
3 639 641 640 
3 641 643 642 
3 643 645 644 
3 645 647 646 
3 647 649 648 
3 649 651 650 
3 651 653 652 
3 653 655 654 
3 655 657 656 
3 657 659 658 
3 659 661 660 
3 661 663 662 
3 663 665 664 
3 665 667 666 
3 667 669 668 
3 669 671 670 
3 671 673 672 
3 673 675 674 
3 675 677 676 
3 677 679 678 
3 679 681 680 
3 681 683 682 
3 683 685 684 
3 685 687 686 
3 687 689 688 
3 689 691 690 
3 691 693 692 
3 693 695 694 
3 695 697 696 
3 697 699 698 
3 699 701 700 
3 701 703 702 
3 703 705 704 
3 705 707 706 
3 707 709 708 
3 709 711 710 
3 711 713 712 
3 713 715 714 
3 715 717 716 
3 717 719 718 
3 719 721 720 
3 721 723 722 
3 723 725 724 
3 725 727 726 
3 727 729 728 
3 729 731 730 
3 731 733 732 
3 733 735 734 
3 735 737 736 
3 737 739 738 
3 739 741 740 
3 741 743 742 
3 743 745 744 
3 745 747 746 
3 747 749 748 
3 749 751 750 
3 751 753 752 
3 753 755 754 
3 755 757 756 
3 757 759 758 
3 759 761 760 
3 761 763 762 
3 763 765 764 
3 765 767 766 
3 767 769 768 
3 769 771 770 
3 771 773 772 
3 773 775 774 
3 775 777 776 
3 777 779 778 
3 779 781 780 
3 781 783 782 
3 783 785 784 
3 785 787 786 
3 787 789 788 
3 789 791 790 
3 791 793 792 
3 793 795 794 
3 795 797 796 
3 797 799 798 
3 799 801 800 
3 801 803 802 
3 803 805 804 
3 805 807 806 
3 807 809 808 
3 809 811 810 
3 811 813 812 
3 813 815 814 
3 815 823 816 
3 816 823 817 
3 817 820 819 
3 820 822 821 
3 822 1 0 
